:FULLY-SPECIFIED
:FORCE-ALL-JOINTS-BE-3DOF
:DEGREES
136
root 7.74087 16.5001 -26.2967 -10.2418 10.5419 5.2244
lfemur -6.26516 13.7388 -21.2605
ltibia 36.285 -0 0
lfoot -18.1364 -13.2454 -0.0476078
ltoes 31.5483 -0 0
rfemur -101.292 -25.507 58.0086
rtibia 94.1956 -0 0
rfoot 19.3824 26.4862 0.243743
rtoes -35.6934 0 0
lowerback 17.0657 -3.62149 -8.98481
upperback 5.57761 -6.30354 -2.04498
thorax -2.76846 -3.15134 4.05658
lowerneck -12.4495 -0.699112 -0.625165
upperneck 0.28266 -0.989585 3.53149
head 2.27252 -0.376188 1.19376
lclavicle 1.84729e-15 1.54102e-14 -8.61836e-31
lhumerus -40.8343 -23.3666 90.213
lradius 52.755 -0 0
lwrist 17.9732 0 0
lhand 9.9892 7.02876 0.010952
lfingers 7.12502 -0 0
lthumb 35.1129 33.5287 0.00232937
rclavicle 1.84729e-15 1.54102e-14 -8.61836e-31
rhumerus -45.1429 -27.4921 -58.4703
rradius 82.5065 -0 0
rwrist -39.3531 0 0
rhand -29.2094 -26.835 0.00307214
rfingers 7.12502 -0 0
rthumb -2.55394 -56.7985 0.00296592
137
root 7.75229 16.4975 -26.2832 -10.3848 10.6544 5.26613
lfemur -6.15963 13.8257 -21.2552
ltibia 36.293 -0 0
lfoot -17.9828 -13.3775 -0.0239809
ltoes 31.4935 -0 0
rfemur -101.99 -25.452 58.4139
rtibia 94.6445 -0 0
rfoot 19.7474 26.7483 0.122704
rtoes -36.1315 0 0
lowerback 17.2198 -3.6708 -9.02512
upperback 5.64404 -6.3865 -2.09021
thorax -2.77543 -3.1955 4.04233
lowerneck -12.4697 -0.687575 -0.645446
upperneck 0.296255 -0.973229 3.56916
head 2.28117 -0.366753 1.20976
lclavicle 2.68786e-15 1.58553e-14 -4.34183e-31
lhumerus -40.8167 -23.4632 90.141
lradius 52.8916 -0 0
lwrist 18.0904 0 0
lhand 10.153 7.05744 0.00551698
lfingers 7.12502 -0 0
lthumb 35.2698 33.5351 0.00117341
rclavicle 2.68786e-15 1.58553e-14 -4.34183e-31
rhumerus -45.1989 -27.6613 -58.2486
rradius 82.8187 -0 0
rwrist -39.7259 0 0
rhand -29.249 -26.8687 0.0015477
rfingers 7.12502 -0 0
rthumb -2.59211 -56.8322 0.00149418
138
root 7.76371 16.4948 -26.2696 -10.5279 10.767 5.30759
lfemur -6.05405 13.9126 -21.2497
ltibia 36.301 0 0
lfoot -17.8292 -13.5095 0
ltoes 31.4387 0 0
rfemur -102.687 -25.3926 58.8183
rtibia 95.0935 0 0
rfoot 20.1118 27.0097 0
rtoes -36.5695 0 0
lowerback 17.374 -3.72 -9.06556
upperback 5.71054 -6.46942 -2.13555
thorax -2.78239 -3.23966 4.02808
lowerneck -12.4898 -0.676045 -0.665731
upperneck 0.309862 -0.956882 3.60684
head 2.28983 -0.35732 1.22576
lclavicle 3.52843e-15 1.63003e-14 0
lhumerus -40.799 -23.5599 90.0689
lradius 53.0282 0 0
lwrist 18.2076 0 0
lhand 10.3167 7.08611 0
lfingers 7.12502 0 0
lthumb 35.4266 33.5415 0
rclavicle 3.52843e-15 1.63003e-14 0
rhumerus -45.2558 -27.8304 -58.0264
rradius 83.1308 0 0
rwrist -40.0987 0 0
rhand -29.2885 -26.9024 0
rfingers 7.12502 0 0
rthumb -2.63029 -56.8659 0
139
root 7.71756 16.4805 -26.2669 -10.0465 11.9082 4.97098
lfemur -6.98791 14.2862 -20.8264
ltibia 36.7829 0 0
lfoot -17.8927 -14.5121 0
ltoes 31.654 0 0
rfemur -102.903 -25.5352 57.3636
rtibia 98.8692 0 0
rfoot 29.3556 22.314 0
rtoes -17.0937 0 0
lowerback 17.1802 -4.06549 -8.86558
upperback 5.54475 -6.87863 -2.15319
thorax -2.83323 -3.43224 3.95824
lowerneck -12.3761 -0.838353 -0.802575
upperneck 0.284744 -1.1632 3.884
head 2.27077 -0.452478 1.32811
lclavicle 5.35725e-14 -1.86858e-14 0
lhumerus -40.1384 -24.6203 90.1707
lradius 52.2274 0 0
lwrist 17.6404 0 0
lhand 11.4487 7.55993 0
lfingers 7.12502 0 0
lthumb 36.499 33.7523 0
rclavicle 5.35725e-14 -1.86858e-14 0
rhumerus -46.1521 -27.9074 -58.8192
rradius 84.1539 0 0
rwrist -38.0524 0 0
rhand -35.3168 -31.2119 0
rfingers 7.12502 0 0
rthumb -8.45048 -61.0228 0
140
root 7.66558 16.4704 -26.2622 -9.47619 12.9341 4.6576
lfemur -7.96788 14.7042 -20.4781
ltibia 37.1457 -0 0
lfoot -18.2118 -14.2181 -0.00327456
ltoes 29.7021 -0 0
rfemur -102.095 -26.1402 55.4793
rtibia 101.834 -0 0
rfoot 30.0648 22.1515 -0.0040223
rtoes -14.9879 0 0
lowerback 16.8745 -4.27996 -8.74481
upperback 5.35086 -7.11947 -2.13682
thorax -2.86315 -3.54386 3.92766
lowerneck -12.2518 -1.05128 -0.853349
upperneck 0.249572 -1.44563 4.08869
head 2.24862 -0.588251 1.38809
lclavicle 3.41314e-14 -1.87653e-14 -5.39506e-32
lhumerus -39.4401 -25.5956 90.4156
lradius 51.4008 -0 0
lwrist 16.4801 0 0
lhand 12.9018 8.13581 0.0292385
lfingers 7.12502 -0 0
lthumb 37.8664 33.9152 0.00778158
rclavicle 3.41314e-14 -1.87653e-14 -5.39506e-32
rhumerus -47.0967 -27.1473 -59.9693
rradius 84.9388 -0 0
rwrist -34.4738 0 0
rhand -37.4502 -37.6131 0.485768
rfingers 7.12502 -0 0
rthumb -9.80457 -30.4199 -2.48278
141
root 7.61359 16.4603 -26.2576 -8.90922 13.963 4.35342
lfemur -8.94711 15.1278 -20.1366
ltibia 37.5085 -0 0
lfoot -18.5309 -13.9241 -0.00491198
ltoes 27.7502 -0 0
rfemur -101.261 -26.7208 53.576
rtibia 104.798 -0 0
rfoot 30.7739 21.9891 -0.00603362
rtoes -12.8821 0 0
lowerback 16.5683 -4.4938 -8.62285
upperback 5.1568 -7.36026 -2.11962
thorax -2.89302 -3.65549 3.89714
lowerneck -12.1272 -1.2641 -0.90459
upperneck 0.213384 -1.72793 4.29359
head 2.22633 -0.724001 1.44812
lclavicle 1.46902e-14 -1.88448e-14 -8.09259e-32
lhumerus -38.7406 -26.5734 90.6492
lradius 50.5741 -0 0
lwrist 15.3197 0 0
lhand 14.355 8.71225 0.0438631
lfingers 7.12502 -0 0
lthumb 39.2338 34.0783 0.0116735
rclavicle 1.46902e-14 -1.88448e-14 -8.09259e-32
rhumerus -48.0518 -26.4043 -61.1257
rradius 85.7237 -0 0
rwrist -30.8952 0 0
rhand -39.6247 -44.0283 0.730361
rfingers 7.12502 -0 0
rthumb -12.2388 0.289728 -3.92836
142
root 7.56161 16.4501 -26.2529 -8.34527 14.9948 4.05837
lfemur -9.92571 15.5571 -19.802
ltibia 37.8713 -0 0
lfoot -18.8499 -13.6301 -0.00491198
ltoes 25.7983 -0 0
rfemur -100.402 -27.2761 51.6537
rtibia 107.763 -0 0
rfoot 31.4831 21.8265 -0.00603362
rtoes -10.7764 0 0
lowerback 16.2616 -4.70698 -8.49971
upperback 4.96256 -7.601 -2.10159
thorax -2.92283 -3.76714 3.86667
lowerneck -12.0025 -1.47681 -0.956298
upperneck 0.176181 -2.01011 4.4987
head 2.2039 -0.859728 1.50821
lclavicle -4.75092e-15 -1.89243e-14 -8.09259e-32
lhumerus -38.0394 -27.5538 90.8714
lradius 49.7475 -0 0
lwrist 14.1594 0 0
lhand 15.8084 9.28888 0.0438631
lfingers 7.12502 -0 0
lthumb 40.6011 34.2413 0.0116735
rclavicle -4.75092e-15 -1.89243e-14 -8.09259e-32
rhumerus -49.0175 -25.6787 -62.2884
rradius 86.5087 -0 0
rwrist -27.3166 0 0
rhand -41.8128 -50.4483 0.730361
rfingers 7.12502 -0 0
rthumb -15.0733 31.0575 -3.92836
